<svg width="18" height="14" viewBox="0 0 18 14" fill="none" xmlns="http://www.w3.org/2000/svg">
<path fill-rule="evenodd" clip-rule="evenodd" d="M17.7744 6.30814C17.9189 6.45033 18 6.64308 18 6.84404C18 7.045 17.9189 7.23775 17.7744 7.37994L11.6027 13.4467C11.5321 13.5212 11.4469 13.581 11.3523 13.6224C11.2576 13.6639 11.1555 13.6862 11.0519 13.688C10.9483 13.6898 10.8454 13.671 10.7494 13.6329C10.6533 13.5947 10.5661 13.538 10.4928 13.466C10.4195 13.394 10.3618 13.3082 10.323 13.2137C10.2842 13.1193 10.2651 13.0182 10.267 12.9164C10.2688 12.8145 10.2915 12.7141 10.3336 12.6211C10.3758 12.5281 10.4366 12.4443 10.5124 12.3749L15.3674 7.60239H0.771417C0.566812 7.60239 0.370589 7.52249 0.225911 7.38027C0.0812355 7.23805 -4.24287e-05 7.04516 -4.24287e-05 6.84404C-4.24287e-05 6.64291 0.0812355 6.45002 0.225911 6.30781C0.370589 6.16559 0.566812 6.08569 0.771417 6.08569H15.3674L10.5124 1.31316C10.4366 1.24374 10.3758 1.16001 10.3336 1.06699C10.2915 0.973967 10.2688 0.873548 10.267 0.771725C10.2651 0.669901 10.2842 0.568759 10.323 0.474331C10.3618 0.379904 10.4195 0.294126 10.4928 0.222114C10.5661 0.150103 10.6533 0.0933337 10.7494 0.0551928C10.8454 0.017052 10.9483 -0.00167854 11.0519 0.000118022C11.1555 0.00191458 11.2576 0.0242014 11.3523 0.0656496C11.4469 0.107098 11.5321 0.166858 11.6027 0.241365L17.7744 6.30814Z" fill="white"/>
</svg>
